<svg xmlns="http://www.w3.org/2000/svg"  viewBox="0 0 100 100" width="100px" height="100px"><path d="M98.829,67.685c-1.717-11.958-11.7-40.128-13.796-46.259C83.246,16.197,76.693,14,71,14	c-7.193,0-13.636,4.555-16.032,11.334c-0.328,0.928-0.573,1.878-0.735,2.845C53.502,28.061,52.756,28,52,28	s-0.534,0.061-1.265,0.179c-0.162-0.967-0.407-1.917-0.735-2.845C47.604,18.555,40.193,14,33,14c-5.693,0-12.246,2.197-14.034,7.426	c-2.096,6.13-12.079,34.301-13.796,46.259C3.42,79.882,15.155,90,27.5,90c7.774,0,14.776-3.966,18.835-10.202	C48.083,80.581,50.004,81,52,81s3.917-0.419,5.665-1.202C61.724,86.034,68.726,90,76.5,90C88.845,90,100.58,79.882,98.829,67.685z" opacity=".35"/><path fill="#f2f2f2" d="M96.829,65.685c-1.717-11.958-11.7-40.128-13.796-46.259C81.246,14.197,74.693,12,69,12	c-7.193,0-13.636,4.555-16.032,11.334c-0.328,0.928-0.573,1.878-0.735,2.845C51.502,26.061,50.756,26,50,26	s-1.502,0.061-2.233,0.179c-0.162-0.967-0.407-1.917-0.735-2.845C44.636,16.555,38.193,12,31,12c-5.693,0-12.246,2.197-14.034,7.426	c-2.096,6.13-12.079,34.301-13.796,46.259C1.42,77.882,13.155,88,25.5,88c7.774,0,14.776-3.966,18.835-10.202	C46.083,78.581,48.004,79,50,79s3.917-0.419,5.665-1.202C59.724,84.034,66.726,88,74.5,88C86.845,88,98.58,77.882,96.829,65.685z"/><circle cx="25.5" cy="65.5" r="17.5" fill="#707cc0"/><circle cx="74.5" cy="65.5" r="17.5" fill="#707cc0"/><path fill="#707cc0" d="M43,29c0,6.627-5.373,12-12,12s-12-5.373-12-12s5.373-12,12-12c5.225,0,9.67,3.339,11.317,8	C42.759,26.251,43,27.597,43,29z"/><circle cx="69" cy="29" r="12" fill="#707cc0"/><path fill="#707cc0" d="M80.317,25L57,29v5.456C55.384,32.358,52.853,31,50,31s-5.384,1.358-7,3.456V29l-23.325-4	L8.904,59.933L39,56.434L43,66h14l3-9.566l31.411,4.546L80.317,25z"/><path fill="#40396e" d="M50,31c-2.853,0-5.384,1.358-7,3.456V38v7.224V66h14V45.224V38v-3.544	C55.384,32.358,52.853,31,50,31z" opacity=".35"/><circle cx="50" cy="65.16" r="8.84" fill="#707cc0"/><path fill="#40396e" d="M69,20c3.799,0,7.205,2.412,8.475,6.003c0.019,0.053,0.039,0.105,0.06,0.156 c0.003,0.011,0.007,0.022,0.01,0.032c0.031,0.093,0.059,0.187,0.099,0.325l10.616,34.431c0.005,0.016,0.01,0.033,0.015,0.049 c0.044,0.136,0.086,0.273,0.138,0.448l0.024,0.078c0.014,0.077,0.032,0.154,0.052,0.231C88.828,63.018,89,64.279,89,65.5 C89,73.495,82.495,80,74.5,80c-6.654,0-12.431-4.513-14.047-10.975c-0.293-1.173-1.262-2.055-2.458-2.238 c-0.152-0.023-0.303-0.034-0.453-0.034c-1.034,0-2.01,0.536-2.56,1.437C53.908,69.95,52.046,71,50,71s-3.908-1.05-4.982-2.81 c-0.55-0.901-1.526-1.437-2.56-1.437c-0.15,0-0.302,0.011-0.453,0.034c-1.195,0.182-2.164,1.065-2.458,2.238 C37.931,75.487,32.154,80,25.5,80C17.505,80,11,73.495,11,65.5c0-1.552,0.257-3.104,0.764-4.614 c0.04-0.118,0.072-0.238,0.096-0.359l10.543-34.193l-0.015-0.005c0.009-0.019,0.018-0.037,0.027-0.056l0.007,0.002l0.016-0.052 c0.032-0.072,0.061-0.145,0.087-0.22C23.795,22.413,27.201,20,31,20c3.809,0,7.22,2.411,8.489,6C39.828,26.96,40,27.969,40,29 v5.456c0,1.284,0.817,2.426,2.033,2.84c0.318,0.108,0.644,0.16,0.967,0.16c0.913,0,1.798-0.418,2.377-1.169 C46.496,34.833,48.181,34,50,34s3.504,0.833,4.623,2.287c0.579,0.752,1.464,1.169,2.377,1.169c0.323,0,0.649-0.052,0.967-0.16 C59.183,36.882,60,35.74,60,34.456V29C60,24.037,64.037,20,69,20 M69,17c-6.627,0-12,5.373-12,12v5.456 C55.384,32.358,52.853,31,50,31s-5.384,1.358-7,3.456V29c0-1.403-0.241-2.749-0.683-4C40.67,20.339,36.225,17,31,17 c-5.224,0-9.656,3.344-11.304,8.004L19.675,25l-0.121,0.392c-0.009,0.028-0.018,0.057-0.026,0.085L8.904,59.933l0.016-0.002 C8.332,61.682,8,63.551,8,65.5C8,75.165,15.835,83,25.5,83c8.195,0,15.055-5.641,16.958-13.247C44.01,72.297,46.802,74,50,74 s5.99-1.703,7.542-4.247C59.445,77.359,66.305,83,74.5,83C84.165,83,92,75.165,92,65.5c0-1.567-0.225-3.078-0.612-4.523 l0.022,0.003l-0.13-0.421c-0.049-0.167-0.099-0.332-0.153-0.497L80.512,25.632c-0.037-0.127-0.075-0.253-0.116-0.378L80.317,25 l-0.014,0.002C78.655,20.344,74.224,17,69,17L69,17z"/><circle cx="50" cy="64" r="3" fill="#40396e"/><circle cx="25.5" cy="65.5" r="11.5" fill="#40396e"/><path fill="#fff" d="M19,67c-0.829,0-1.5-0.672-1.5-1.5c0-4.411,3.589-8,8-8c0.829,0,1.5,0.672,1.5,1.5 s-0.671,1.5-1.5,1.5c-2.757,0-5,2.243-5,5C20.5,66.328,19.829,67,19,67z"/><circle cx="74.5" cy="65.5" r="11.5" fill="#40396e"/><path fill="#fff" d="M68,67c-0.829,0-1.5-0.672-1.5-1.5c0-4.411,3.589-8,8-8c0.829,0,1.5,0.672,1.5,1.5 s-0.671,1.5-1.5,1.5c-2.757,0-5,2.243-5,5C69.5,66.328,68.829,67,68,67z"/></svg>