<svg xmlns="http://www.w3.org/2000/svg"  viewBox="0 0 100 100" width="100px" height="100px"><path d="M21.068,84c-0.151,0-0.301-0.005-0.45-0.016 C11.951,83.74,4.931,76.517,4.931,67.793c0-6.617,4.006-12.418,9.824-14.907c0.325-2.617,1.225-5.158,2.693-7.592 c2.799-4.644,7.305-7.892,12.361-8.91C31.086,36.129,32.382,36,33.664,36c0.07,0,0.14,0,0.209,0.001 c1.845-4.602,5.025-8.549,9.235-11.381c4.106-2.761,8.873-4.221,13.789-4.221c2.455,0,4.935,0.362,7.37,1.075 c7.31,2.14,13.253,7.713,15.9,14.909c0.909,2.475,1.44,5.04,1.583,7.604c1.888,0.26,3.753,0.793,5.569,1.594 c5.335,2.35,9.442,7.1,10.988,12.706c1.713,6.217,0.524,12.671-3.263,17.708c-3.675,4.887-9.256,7.791-15.337,7.988 C79.547,83.994,79.386,84,79.225,84H21.068z" opacity=".35"/><path fill="#f2f2f2" d="M19.068,82c-0.151,0-0.301-0.005-0.45-0.016c-8.666-0.243-15.686-7.467-15.686-16.19 c0-6.617,4.006-12.418,9.824-14.907c0.325-2.617,1.225-5.158,2.693-7.592c2.799-4.644,7.305-7.892,12.361-8.91 C29.086,34.129,30.382,34,31.664,34c0.07,0,0.14,0,0.209,0.001c1.845-4.602,5.025-8.549,9.235-11.381 c4.106-2.761,8.873-4.221,13.789-4.221c2.455,0,4.935,0.362,7.37,1.075c7.31,2.14,13.253,7.713,15.9,14.909 c0.909,2.475,1.44,5.04,1.583,7.604c1.888,0.26,3.753,0.793,5.569,1.594c5.335,2.35,9.442,7.1,10.988,12.706 c1.713,6.217,0.524,12.671-3.263,17.708c-3.675,4.887-9.256,7.791-15.337,7.988C77.547,81.994,77.386,82,77.225,82H19.068z"/><path fill="#70bfff" d="M82.953,49.246c-3.717-1.638-7.269-1.531-10.341-0.415c1.218-3.792,1.296-8.098-0.342-12.554 c-1.951-5.307-6.341-9.442-11.743-11.024c-11.944-3.498-22.873,4.752-24.01,15.919c-2.266-0.975-4.87-1.31-7.59-0.763 c-3.432,0.69-6.354,2.949-8.169,5.959c-2.074,3.441-2.242,6.64-1.563,9.51c-0.118-0.004-0.234-0.018-0.353-0.018 c-5.39,0-9.759,4.395-9.759,9.816c0,5.42,4.368,9.814,9.756,9.816L18.838,75.5h58.583l-0.001-0.009 c8.733-0.11,15.497-8.447,12.956-17.666C89.324,54.008,86.56,50.836,82.953,49.246z"/><path fill="#40396e" d="M77.421,77H18.838c-0.061,0-0.12-0.003-0.18-0.011c-6.123-0.1-11.075-5.138-11.075-11.314 c0-5.758,4.301-10.525,9.844-11.227c-0.34-3.063,0.346-6.034,2.047-8.855c2.098-3.48,5.436-5.906,9.157-6.655 c2.25-0.452,4.522-0.374,6.671,0.22c1.025-5.219,4.065-9.822,8.529-12.825c5.031-3.384,11.108-4.278,17.117-2.519 c5.851,1.713,10.608,6.179,12.729,11.946c1.326,3.61,1.664,7.355,1.004,10.969c2.954-0.519,5.976-0.133,8.876,1.145 c4.014,1.769,7.104,5.339,8.265,9.552c1.311,4.757,0.412,9.679-2.464,13.505c-2.817,3.747-7.093,5.948-11.751,6.057 C77.546,76.996,77.483,77,77.421,77z M19.007,74h58.252c0.047-0.005,0.095-0.008,0.143-0.009c3.786-0.047,7.271-1.82,9.559-4.863 c2.313-3.076,3.031-7.051,1.97-10.905c-0.924-3.353-3.385-6.195-6.582-7.604h-0.001c-3.076-1.356-6.181-1.483-9.223-0.378 c-0.539,0.195-1.141,0.068-1.553-0.329c-0.413-0.397-0.563-0.994-0.388-1.539c1.199-3.737,1.089-7.741-0.322-11.578 c-1.793-4.878-5.814-8.655-10.757-10.102c-5.136-1.505-10.322-0.748-14.599,2.129c-4.246,2.856-6.979,7.414-7.497,12.502 c-0.048,0.476-0.32,0.899-0.732,1.141c-0.411,0.242-0.915,0.274-1.353,0.085c-2.093-0.901-4.409-1.132-6.701-0.67 c-2.898,0.583-5.516,2.501-7.18,5.263c-1.631,2.705-2.085,5.449-1.388,8.39c0.107,0.456-0.004,0.936-0.301,1.298 s-0.744,0.558-1.215,0.547l-0.298-0.017c-4.554,0-8.259,3.73-8.259,8.315c0,4.584,3.704,8.314,8.258,8.316 C18.896,73.991,18.951,73.994,19.007,74z"/><line x1="50.5" x2="50.5" y1="65.5" y2="44.5" fill="none" stroke="#40396e" stroke-linecap="round" stroke-linejoin="round" stroke-miterlimit="10" stroke-width="3"/><line x1="42.5" x2="50.5" y1="50.5" y2="44.5" fill="none" stroke="#40396e" stroke-linecap="round" stroke-linejoin="round" stroke-miterlimit="10" stroke-width="3"/><line x1="50.5" x2="58.5" y1="44.5" y2="50.5" fill="none" stroke="#40396e" stroke-linecap="round" stroke-linejoin="round" stroke-miterlimit="10" stroke-width="3"/></svg>